# xmcd CD database file
#
# Track frame offsets:
#	150
#	14651
#	27684
#	41786
#	59757
#	77312
#	94592
#	109259
#	124481
#	138497
#
# Disc length: 2088 seconds
#
# Revision: 0
# Processed by: cddbd v1.5.1PL0 Copyright (c) Steve Scherf et al.
# Submitted via: CDex 1.40Release
#
DISCID=9008260a
DTITLE=RyLee Madison - the life of rylee
DYEAR=2002
DGENRE=Country
TTITLE0=It All Comes Back 2 U
TTITLE1=B4 I Die
TTITLE2=Familiy
TTITLE3=You'd Cry Too
TTITLE4=Simple Life
TTITLE5=Life Is Good
TTITLE6=Giving In
TTITLE7=Say A Little Prayer
TTITLE8=Thats What Friends R4
TTITLE9=Last Stop B4 Heaven
EXTD=YEAR: 2002 ID3G: 2
EXTT0=
EXTT1=
EXTT2=
EXTT3=
EXTT4=
EXTT5=
EXTT6=
EXTT7=
EXTT8=
EXTT9=
PLAYORDER=
